<?xml version="1.0" encoding="utf-8"?>
<!-- Generator: Adobe Illustrator 19.0.0, SVG Export Plug-In . SVG Version: 6.00 Build 0)  -->
<svg version="1.1" id="Layer_1" xmlns="http://www.w3.org/2000/svg" xmlns:xlink="http://www.w3.org/1999/xlink" x="0px" y="0px"
	 viewBox="0 0 273.9 273.9" style="enable-background:new 0 0 273.9 273.9;" xml:space="preserve">
<style type="text/css">
	.st0{fill:#FFFFFF;}
</style>
<g id="XMLID_356_">
	<path id="XMLID_372_" class="st0" d="M273.9,226.8c-6.1,5.5-13.5,5.5-21,4.8c-2.2-0.2-4.4-1-4.6-3.6c-0.3-3,1.6-4.8,4.3-5.1
		c3.5-0.5,7.1-0.5,11.5-0.8c0-64.1,0-128.1,0-193.4c-12.6-1.3-25.6-0.2-38.9-0.6c-2.3,6.5-0.9,12.6-1.5,18.5c-0.3,3-1,6.1-4.6,6
		c-3.4-0.1-4.6-3.1-4.7-6.2c-0.1-7.8,0-15.7-0.2-23.5c-0.1-4.2,0.8-8.5-1.2-13.3c-50.3,0-100.8,0-152.2,0c0,58.5,0,117,0,176.3
		c3.5,1.6,7.2,1.5,11.4,0.2c2.5-8.6,0.9-17.6,1.2-26.3c0.4-12.1,0.6-12.4,12.9-12.5c17.8,0,35.7,0,53.5,0c12.1,0,12.3,0.3,12.4,12.8
		c0,8.5,0,17,0,25.6c13,4.2,26.8-2.4,38.5,4.5c-1.6,6.5-5.7,6.4-9.6,6.5c-51,0-102,0-153,0c-1.1,0-2.1,0-3.2-0.1
		c-3-0.2-6-1.2-6.1-4.7c-0.2-3.8,3-4.5,5.9-4.6c7.8-0.1,15.6-0.1,23-0.1c3-8.4,4.1-138.8,1.6-158.4c-12.8,0-25.8,0-39.5,0
		c0,64.2,0,128.2,0,192.1c3.8,2.6,7.8,1.5,11.6,1.5c51.4,0.1,102.7,0.1,154.1,0.1c3.2,0,6.4,0,9.6,0.3c2.7,0.2,5,1.6,5,4.6
		c0,3.2-2.5,3.9-5.1,4.3c-4.9,0.7-9.9-0.8-15.3,1.3c-1.9,10-0.7,20.2-0.8,30.5c6.4,2.7,12.5,1.2,18.4,1.5c6.6,0.3,8.2,3.2,5.5,8.9
		c-43.5,0-87,0-130.5,0c-1.7-8-1.4-8.7,6.3-8.8c12-0.2,24-0.1,36.6-0.1c0.4-11.6,0.8-21.8-0.1-31.5c-4.5-2.6-8.5-1.6-12.3-1.6
		c-25.3-0.1-50.6-0.2-75.8,0c-6.2,0-11.9-0.9-16.7-5.1c0-67,0-134.1,0-201.1c3.4-5.3,8.2-7,14.4-6.9c11.5,0.3,23.1,0.1,34.7,0.1
		c0.8-7.1,1.5-13,2.2-18.9c57.1,0,114.1,0,171.2,0c0.7,5.9,1.4,11.8,2.2,18.9c11.7,0,23.2,0.2,34.7-0.1c6.2-0.2,11,1.6,14.4,6.9
		C273.9,92.7,273.9,159.8,273.9,226.8z M83.6,186.3c20.2,0,39.1,0,58.5,0c1.1-10.2,1.2-19.6,0.1-29.1c-19.9,0-39.2,0-58.9,0
		C83.1,167.1,82.6,176.2,83.6,186.3z M157.9,232.5c-14.2,0-27.9,0-42.4,0c-0.2,11.1-1.1,21.4,0.6,31.7c14.6,0,28.2,0,42.5,0
		C158.6,253.2,159.5,243.1,157.9,232.5z"/>
	<path id="XMLID_367_" class="st0" d="M211.8,273.9c-10.1-6.7-13.3-16.1-13.2-28.2c0.5-43.1,0.3-86.1,0.1-129.2
		c-0.1-8.7,1.3-16.8,4.8-24.8c3.8-8.4,7-17.1,10.5-25.6c0.8-2,2-3.8,4.5-4.1c3.1-0.4,4.6,1.8,5.5,4.1c7.1,19.1,16.6,37.1,15.8,59
		c-1.5,40.5-0.5,81.1-0.3,121.7c0.1,12-3.1,21.7-14.8,27C220.4,273.9,216.1,273.9,211.8,273.9z M208.6,109.8c0,41.4,0,81.9,0,122.8
		c7.1,1,13.7,1.6,20.4-0.5c0-40.8,0-81.3,0-122.2C222.1,108.9,215.8,109.2,208.6,109.8z M228.9,243.8c-7.7-0.9-13.9-1.5-20.5,0.4
		c-0.5,7.3-1.6,14.1,5.2,18.7c3.6,2.5,7.5,2.4,11-0.2C231.4,257.9,229.8,251.2,228.9,243.8z M226.9,99.3c-2.4-6.9-4-13.1-8.2-19.3
		c-2.7,7.1-6.5,12.6-7,19.6C216.8,100.4,221.3,100.6,226.9,99.3z"/>
	<path id="XMLID_364_" class="st0" d="M74.8,62.1c-2.5-11.5-1.4-22.5-1-33.4c0.2-3.7,2.8-5.6,6.6-5.5c1.4,0,2.8,0,4.3,0
		c34.9,0,69.7,0,104.6,0c10.3,0,11.3,0.8,11.2,10.7c-0.1,9.1,1.4,18.4-1.5,28.2C157.5,62.1,116.4,62.1,74.8,62.1z M83.8,52.8
		c36.1,0,71.1,0,106.4,0c1-7,1.1-13.3,0-20c-35.7,0-70.8,0-106.4,0C82.7,39.6,82.8,45.8,83.8,52.8z"/>
	<path id="XMLID_363_" class="st0" d="M136.9,80.8c-17.5,0-34.9,0.1-52.4-0.1c-4,0-10.1,1.2-10.1-4.8c0-6,6-4.8,10.1-4.8
		c34.9-0.1,69.8-0.1,104.7,0c1.8,0,3.6,0,5.3,0.3c2.7,0.4,5,1.6,5,4.6c0,3-2.3,4.3-5,4.6c-2.5,0.3-5,0.3-7.5,0.3
		C170.4,80.8,153.7,80.8,136.9,80.8z"/>
	<path id="XMLID_362_" class="st0" d="M151.7,116.4c-1.7,5.3-5.8,5.2-9.7,5.2c-19.5,0-39.1,0-58.6,0c-1.4,0-2.9,0-4.2-0.3
		c-2.7-0.4-4.9-1.7-4.9-4.7c0-3,2.4-4.2,5-4.5c2.1-0.3,4.3-0.3,6.4-0.3c18.1,0,36.2,0,54.4,0C144.5,111.9,149.4,111.2,151.7,116.4z"
		/>
	<path id="XMLID_361_" class="st0" d="M151.6,99.3c-1.3,4.6-5.1,4.5-8.6,4.5c-20.2,0.1-40.4,0-60.6,0c-1.7,0-3.5-0.4-5.2-0.8
		c-1.5-0.3-2.4-1.5-2.7-3c-0.3-1.9,0.4-3.4,2.1-4.4c1.9-1.2,4-1.2,6.2-1.2c20.2,0,40.4,0,60.6,0C147,94.4,150.5,94.9,151.6,99.3z"/>
	<path id="XMLID_360_" class="st0" d="M112.3,139c-9.3,0-18.5,0.1-27.8,0c-2.5,0-5-0.2-7.4-0.9c-1.8-0.5-2.7-2.2-2.7-4.2
		c0.1-2,1.2-3.3,3.1-3.7c2.1-0.3,4.2-0.5,6.4-0.5c19.2,0,38.4,0,57.7,0c0.7,0,1.4,0,2.1,0c3.2,0.2,7.3,0,7.4,4.2c0,4.7-4.2,5-7.9,5
		C133,139,122.7,139,112.3,139z"/>
	<path id="XMLID_359_" class="st0" d="M176.6,94.1c3.5,0.3,7,0.4,10.4,0.9c2.2,0.3,3.8,2,3.7,4.4c-0.1,2.5-1.8,3.7-4.1,4
		c-7,0.8-14,0.8-21,0.1c-2.5-0.2-5-1.4-4.7-4.5c0.2-2.9,2.7-4.1,5.2-4.3c3.5-0.3,7-0.1,10.5-0.1C176.6,94.4,176.6,94.3,176.6,94.1z"
		/>
	<path id="XMLID_358_" class="st0" d="M190.2,116.9c-7.2,7-23.1,6.8-29.5-0.3C167.8,109.6,183.8,109.8,190.2,116.9z"/>
	<path id="XMLID_357_" class="st0" d="M176,130c3.2,0,6.4-0.1,9.5,0.1c2.2,0.1,4.2,1.3,4.5,3.7c0.3,2.4-1.4,4.2-3.6,4.6
		c-7.3,1.2-14.8,1.2-22.1,0c-2.2-0.4-3.8-2.2-3.5-4.6c0.3-2.4,2.3-3.5,4.6-3.6C168.9,129.9,172.5,130,176,130z"/>
</g>
</svg>
