<?xml version="1.0" encoding="utf-8"?>
<!-- Generator: Adobe Illustrator 19.0.0, SVG Export Plug-In . SVG Version: 6.00 Build 0)  -->
<svg version="1.1" id="Layer_1" xmlns="http://www.w3.org/2000/svg" xmlns:xlink="http://www.w3.org/1999/xlink" x="0px" y="0px"
	 viewBox="-342 144.1 273.9 273.9" style="enable-background:new -342 144.1 273.9 273.9;" xml:space="preserve">
<style type="text/css">
	.st0{fill:#FFFFFF;}
</style>
<g id="XMLID_273_">
	<path id="XMLID_274_" class="st0" d="M-90.1,364.3H-320c-10.8,0-19.6-8.8-19.6-19.6V171.5c0-10.8,8.8-19.6,19.6-19.6h229.9
		c10.8,0,19.6,8.8,19.6,19.6v173.2C-70.5,355.5-79.3,364.3-90.1,364.3z M-320,161c-5.8,0-10.5,4.7-10.5,10.5v173.2
		c0,5.8,4.7,10.5,10.5,10.5h229.9c5.8,0,10.5-4.7,10.5-10.5V171.5c0-5.8-4.7-10.5-10.5-10.5H-320z"/>
	<path id="XMLID_277_" class="st0" d="M-170.6,412.9h-69v-57.7h69V412.9z M-230.4,403.8h50.7v-39.5h-50.7V403.8z"/>
	<path id="XMLID_275_" class="st0" d="M-95.8,325.4h-218.5c-0.5,0-1-0.4-1-1v-6.8c0-0.5,0.4-1,1-1h218.5c0.5,0,1,0.4,1,1v6.8
		C-94.8,324.9-95.3,325.4-95.8,325.4z"/>
	<path id="XMLID_276_" class="st0" d="M-95.8,412.7h-218.5c-0.5,0-1-0.4-1-1v-6.8c0-0.5,0.4-1,1-1h218.5c0.5,0,1,0.4,1,1v6.8
		C-94.8,412.3-95.3,412.7-95.8,412.7z"/>
	<g id="XMLID_272_">
		<path id="XMLID_279_" class="st0" d="M-250,307.5h-35.6v-78.6h35.6V307.5z M-276.5,298.4h17.3V238h-17.3V298.4z"/>
		<path id="XMLID_280_" class="st0" d="M-208.2,307.5h-35.6V210h35.6V307.5z M-234.6,298.4h17.3v-79.3h-17.3V298.4z"/>
		<path id="XMLID_283_" class="st0" d="M-166.3,307.5h-35.6v-116h35.6V307.5z M-192.8,298.4h17.3v-97.7h-17.3V298.4z"/>
		<path id="XMLID_278_" class="st0" d="M-124.5,307.5h-35.6v-58.8h35.6V307.5z M-151,298.4h17.3v-40.5H-151V298.4z"/>
	</g>
</g>
</svg>
