<?xml version="1.0" encoding="utf-8"?>
<!-- Generator: Adobe Illustrator 19.0.0, SVG Export Plug-In . SVG Version: 6.00 Build 0)  -->
<svg version="1.1" id="Layer_1" xmlns="http://www.w3.org/2000/svg" xmlns:xlink="http://www.w3.org/1999/xlink" x="0px" y="0px"
	 viewBox="0 0 273.9 273.9" style="enable-background:new 0 0 273.9 273.9;" xml:space="preserve">
<style type="text/css">
	.st0{fill:#FFFFFF;}
</style>
<g id="XMLID_348_">
	<path id="XMLID_352_" class="st0" d="M269.2,194.7c-4.7,2.7-7.9,2.2-8.5-3.9c-0.2-2.7-0.1-5.5-0.1-8.3c0-35.8,0-71.6,0-107.4
		c0-3.8,0-7.5,0-11c-7.9-2.5-226.3-3.6-246.6-1.3c0,61.9,0,124,0,186.6c81.8,0,163.3,0,245.3,0c2.5-5.8,0.9-12,1.2-18
		c0.3-6.5-0.2-13.1,0.2-19.6c0.3-6.4,1.3-6.7,8.5-4.7c0,16.5,0,33.1,0,49.6c-3.3,2.3-7.1,2.2-10.9,2.2c-80.9,0-161.8,0-242.8,0
		c-3.8,0-7.6,0.1-10.9-2.2c0-78.6,0-157.1,0-235.7c3.3-2.3,7.1-2.2,10.9-2.2c80.9,0,161.8,0,242.8,0c3.8,0,7.6-0.1,10.9,2.2
		C269.2,78.9,269.2,136.8,269.2,194.7z M13.8,28.4c-0.8,7.9-0.6,15.3-0.2,23.3c52,0,103.3,0,155,0c0.6-8.2,1.3-15.6-0.6-23.3
		C116.5,28.4,65.5,28.4,13.8,28.4z M178.6,51.8c27.7,0,54.3,0,81.6,0c0.3-8.3,1.5-16-0.7-23.2c-27.3,0-54,0-80.7,0
		C177.9,36.6,178,43.7,178.6,51.8z"/>
	<path id="XMLID_351_" class="st0" d="M56.5,156.6c10.5,6.3,21,12.6,31.4,19c2.7,1.6,5.4,3.1,7.9,4.8c2.3,1.6,4.6,3.7,2.5,6.8
		c-2,2.9-4.8,2.1-7.3,0.6c-8.3-4.9-16.6-9.8-24.9-14.7c-6.8-4-13.7-7.9-20.4-12.2c-5.5-3.6-5.5-6.6,0.1-10c14.9-9.2,30.1-18,45.2-27
		c2.5-1.5,5.3-2.5,7.3,0.6c2.4,3.8-0.6,5.7-3.3,7.3c-10.6,6.4-21.3,12.7-31.9,19.1C61,152.2,58.1,152.9,56.5,156.6z"/>
	<path id="XMLID_350_" class="st0" d="M218.9,155.7c-13.3-8-25.2-14.9-36.8-22.1c-3.3-2.1-10-3.6-6.3-9.3c3.2-4.9,7.4-0.1,10.6,1.8
		c13.1,7.5,26.1,15.3,39.1,23.1c8.7,5.3,8.8,7.7,0.5,12.8c-13.5,8.3-27.2,16.3-40.8,24.3c-1.8,1-3.7,1.9-5.6,2.5
		c-1.8,0.5-3.4-0.3-4.4-1.9c-1-1.7-0.8-3.5,0.7-4.7c2.1-1.8,4.4-3.3,6.7-4.7C194.1,170.6,205.6,163.7,218.9,155.7z"/>
	<path id="XMLID_349_" class="st0" d="M117.6,188.8c-3-0.1-4.4-1.6-4.1-4.6c0.2-2.5,1.9-4.4,3.2-6.4c11.1-16.6,22.2-33.1,33.3-49.6
		c1-1.4,2-2.8,3.1-4.1c1.5-1.6,3.5-2.4,5.5-1.1c1.9,1.3,2.2,3.5,1.3,5.5c-0.8,1.9-1.9,3.7-3,5.4c-10.9,16.3-21.8,32.5-32.7,48.8
		C122.5,185.3,121.1,188.3,117.6,188.8z"/>
</g>
</svg>
