<?xml version="1.0" encoding="utf-8"?>
<!-- Generator: Adobe Illustrator 19.0.0, SVG Export Plug-In . SVG Version: 6.00 Build 0)  -->
<svg version="1.1" id="Layer_1" xmlns="http://www.w3.org/2000/svg" xmlns:xlink="http://www.w3.org/1999/xlink" x="0px" y="0px"
	 viewBox="0 0 273.9 273.9" style="enable-background:new 0 0 273.9 273.9;" xml:space="preserve">
<style type="text/css">
	.st0{fill:#FFFFFF;}
</style>
<g id="XMLID_376_">
	<path id="XMLID_379_" class="st0" d="M0,229c8.6-13.1,14.8-27.5,22.5-41.1c2.2-3.9,1.8-8.3,1.8-12.5c0-34.6,0-69.1,0-103.7
		c0-3.2-0.1-6.4,0.1-9.6c0.8-18,8.7-25.9,26.7-26c54.2-0.1,108.3-0.1,162.5,0c3.9,0,10.1-1.8,10.2,4.4c0.1,6.1-6,4.7-10,4.7
		c-52.7,0.1-105.5,0-158.2,0.1c-3.2,0-6.4-0.2-9.6,0.2c-7,0.9-10.7,4.9-11.7,11.8c-0.1,1.1-0.2,2.1-0.2,3.2c0,38.1,0,76.3,0.1,114.4
		c0,1.4,0.4,2.7,0.7,4.9c68,0,135.8,0,203.5,0c2.5-3.9,1.5-7.9,1.5-11.8c0.1-31.7,0-63.4,0.1-95.1c0-4.3-1.7-11.1,4.8-11.1
		c6.6,0,4.7,6.8,4.7,11c0.2,33.9,0.2,67.7,0,101.6c0,7,1.3,13.2,4.9,19.3c6.8,11.6,12,24.2,19.5,35.4c0,5.7,0,11.4,0,17.1
		c-5.1,12.6-14.9,17-27.9,17c-72.7-0.1-145.3-0.1-218,0c-13,0-22.8-4.4-27.9-17C0,240.4,0,234.7,0,229z M261.4,226.8
		c-5.4-10.2-10.5-18.7-14.5-27.7c-3.1-6.9-7.4-9-14.8-9c-63.5,0.3-126.9,0.2-190.4,0.2c-2.1,0-4.3,0-6.4,0.1
		c-1.8,0.1-3.7,0.5-4.6,2.2c-5.9,11.1-12.6,21.8-17.6,34.2C96.1,226.8,177.7,226.8,261.4,226.8z M9.2,237.4
		c1.7,12.3,4.6,15.3,14.6,16.2c2.5,0.2,5,0.1,7.5,0.1c70.5,0,141,0,211.6,0c3.2,0,6.4,0.1,9.6-0.4c9.2-1.5,11.8-5.1,11.3-15.8
		C179.2,237.4,94.6,237.4,9.2,237.4z"/>
	<path id="XMLID_378_" class="st0" d="M273.9,42.8c-8.4-0.5-8.4-0.5-9.5-13.5c-4.3,0.9-6.3,4.5-8.9,7.2
		c-29.8,29.6-59.5,59.4-89.2,89.1c-1.8,1.8-3.6,3.4-5.3,5.3c-4.2,4.7-8,4.9-12.5,0.2c-7.3-7.8-15-15.2-22.6-22.7
		c-2-2-3.6-4.5-6.6-5.3c-3.5,1.3-5.5,4.4-8,6.8c-18.9,18.8-37.8,37.8-56.7,56.6c-2.8,2.8-6.1,8.1-10.4,4c-4.5-4.3,1-7.5,3.7-10.3
		C69.2,138.7,90.6,117.3,112,96c6.6-6.6,8-6.5,14.8,0.2c9.1,9,18.1,18.1,26.4,26.5c34.1-34.1,67.7-67.7,101.7-101.8
		c-1-2-4.2-0.1-6.8-0.6c-2.9-0.6-6.1-0.9-5.9-4.7c0.2-3.5,3.3-4.6,6.3-4.5c8.5,0.2,17.1-1.7,25.3,1.8
		C273.9,22.9,273.9,32.9,273.9,42.8z"/>
	<path id="XMLID_377_" class="st0" d="M137.1,218.7c-4.3,0-8.5,0.1-12.8-0.1c-2.2-0.1-4.2-1.2-4.4-3.8c-0.2-2.5,1.3-4.3,3.6-4.6
		c8.8-1.1,17.7-0.9,26.6-0.1c2.2,0.2,3.9,1.8,3.9,4.4c0,2.6-1.8,3.9-4.1,4.1C145.7,218.9,141.4,218.7,137.1,218.7
		C137.1,218.7,137.1,218.7,137.1,218.7z"/>
</g>
</svg>
