<?xml version="1.0" encoding="utf-8"?>
<!-- Generator: Adobe Illustrator 19.0.0, SVG Export Plug-In . SVG Version: 6.00 Build 0)  -->
<svg version="1.1" id="Layer_1" xmlns="http://www.w3.org/2000/svg" xmlns:xlink="http://www.w3.org/1999/xlink" x="0px" y="0px"
	 viewBox="0 0 273.9 273.9" style="enable-background:new 0 0 273.9 273.9;" xml:space="preserve">
<style type="text/css">
	.st0{fill:#FFFFFF;}
</style>
<g id="XMLID_333_">
	<path id="XMLID_344_" class="st0" d="M268.8,192.8c-4.7,2.7-7.9,2.2-8.5-3.9c-0.2-2.7-0.1-5.5-0.1-8.3c0-35.8,0-71.6,0-107.4
		c0-3.8,0-7.5,0-11c-7.9-2.5-226.3-3.6-246.6-1.3c0,61.9,0,124,0,186.6c81.8,0,163.3,0,245.3,0c2.5-5.8,0.9-12,1.2-18
		c0.3-6.5-0.2-13.1,0.2-19.6c0.3-6.4,1.3-6.7,8.5-4.7c0,16.5,0,33.1,0,49.6c-3.3,2.3-7.1,2.2-10.9,2.2c-80.9,0-161.8,0-242.8,0
		c-3.8,0-7.6,0.1-10.9-2.2c0-78.6,0-157.1,0-235.7c3.3-2.3,7.1-2.2,10.9-2.2c80.9,0,161.8,0,242.8,0c3.8,0,7.6-0.1,10.9,2.2
		C268.8,77,268.8,134.9,268.8,192.8z M167.4,49.9c2.1-10.7,1.9-16.3-0.6-23.3c-51.1,0-102.2,0-153.5,0c-0.3,8.2-1.3,15.7,0.6,23.3
		C65.3,49.9,116.4,49.9,167.4,49.9z M178.2,49.8c27.9,0,54.6,0,81.7,0c0.4-8.2,0.7-15.6-0.2-23.3c-27.4,0-54.1,0-81.1,0
		C177.3,34.4,177.7,41.8,178.2,49.8z"/>
	<path id="XMLID_339_" class="st0" d="M60,190.6c0-5.5,0-9.3,0-13.1c0-16.1,0-16.1,15.6-16.1c18.2,0,36.5,0,55,0
		c3-6.5,0.8-12.9,1.5-20.4c-15,0-29,0-43,0c-12.3,0-12.7-0.4-12.7-12.8c0-13.8-0.1-27.5,0-41.3c0.1-8.3,1.3-9.7,9.6-9.8
		c33.7-0.1,67.5-0.1,101.2,0c7.7,0,9.2,1.5,9.3,9c0.2,15.1,0.2,30.3,0,45.5c-0.1,8.2-1.3,9.3-9.8,9.4c-14.8,0.1-29.5,0-45,0
		c0,16.6,0,32.5,0,49.5c6.7,0,13.2,0.1,19.6,0c5.5-0.1,8.4,2.4,8.3,8c-0.1,7.9-0.1,15.8,0,23.8c0.1,5.7-2.7,8-8.3,7.9
		c-16.5-0.1-33.1-0.1-49.6,0c-5.6,0-8.4-2.2-8.3-7.9c0.1-7.9,0.1-15.8,0-23.8c0-5.6,2.7-8.1,8.3-8c6.5,0.1,12.9,0,20,0
		c0.7-7.1,0.6-13.1,0-19.8c-20.6,0-40.8,0-61.4,0c-2.1,6.1-1.4,12.4-0.4,19c6.2,1.3,12,0.7,17.8,0.7c5.4,0,8.6,1.9,8.6,7.6
		c0,8.3,0,16.5,0,24.8c0,5.1-2.5,7.3-7.7,7.3c-16.9-0.1-33.7-0.1-50.6,0c-5.4,0-7.4-2.6-7.3-7.6c0.1-7.9,0.2-15.8,0-23.8
		c-0.2-6.4,3.1-8.4,9-8.3C45.9,190.8,52.4,190.6,60,190.6z M85.5,131.3c34,0,67.7,0,101.8,0c0-15,0-29.3,0-43.6
		c-10.7-2.6-94.3-2.2-101.8,0.6C85.5,102.3,85.5,116.3,85.5,131.3z M160.3,221c-0.2-7.7,1.7-14.5-1.1-20.5c-15.8,0-30.9,0-46.7,0
		c0.1,7.3-0.7,13.7,0.5,20.5C128.8,221,144,221,160.3,221z M87.1,221.1c-0.6-7.7,1.2-14.5-1.3-20.9c-15.6,0-30.5,0-45.8,0
		c-1,7.3-0.9,13.9-0.1,20.9C55.7,221.1,70.7,221.1,87.1,221.1z"/>
	<path id="XMLID_336_" class="st0" d="M212.9,190.6c8.3,0,14.8,0.1,21.3,0c5.5-0.1,8.3,2.2,8.2,8c-0.2,8.3-0.1,16.5-0.1,24.8
		c0,4.7-2.3,6.9-7,6.9c-17.2,0-34.4-0.1-51.6,0c-4.9,0-6.9-2.5-6.9-7c-0.1-8.6-0.1-17.2,0-25.8c0.1-4.6,2.6-6.7,7.2-6.8
		c6.2-0.2,12.4,0.7,18.8-0.7c1.8-6,1-12.1,0.5-19.7c-9.7,0-19.2,0-28.7,0c-6.5,0-13.1,0-19.6-0.1c-3-0.1-5.7-1.1-5.5-4.7
		c0.2-2.8,2.5-3.9,5.2-3.9c3.8-0.1,7.6-0.1,11.4-0.1c12.7,0,25.5,0.2,38.2-0.1c6.2-0.1,8.8,2.6,8.6,8.6
		C212.8,176.5,212.9,183,212.9,190.6z M186.4,220.7c16.2,0,31.4,0,46.8,0c0-7.4,1.4-14.2-0.9-20.6c-15.6,0-30.5,0-45.7,0
		C185.4,207.2,185.7,213.6,186.4,220.7z"/>
	<path id="XMLID_335_" class="st0" d="M95.4,100.6c0.5-2.8,2.6-4.3,5.1-4.3c24.3-0.4,48.7-1,73,0.3c2,0.1,3.7,1.8,4,4.1
		c-0.4,2.4-2,3.9-4.1,4c-24.7,1-49.4,1.1-74,0C97.3,104.6,95.7,103,95.4,100.6z"/>
	<path id="XMLID_334_" class="st0" d="M136.2,122.3c-6.2,0-12.3,0.1-18.5-0.1c-3.2-0.1-6.5-0.9-6.2-5.1c0.3-3.6,3.5-3.9,6.2-3.9
		c12.7-0.1,25.3-0.1,38,0c2.8,0,5.9,0.6,5.8,4.3c-0.1,3.5-2.9,4.5-5.8,4.6C149.2,122.3,142.7,122.2,136.2,122.3
		C136.2,122.2,136.2,122.2,136.2,122.3z"/>
</g>
</svg>
